# xmcd
#
# Track frame offsets:
#	182
#	11945
#	26525
#	40777
#	54720
#	67502
#	82960
#	96077
#	112610
#	124887
#
# Disc length: 1849 seconds
#
# Revision: 2
# Processed by: cddbd v1.5.2PL0 Copyright (c) Steve Scherf et al.
# Submitted via: audiograbber 1.83.01
#
DISCID=7007370a
DTITLE=Georges Hamel - Le cowboy des temps modernes
DYEAR=1991
DGENRE=Country
TTITLE0=Le Cowboy Des Temps Modernes(Denis Champoux-Denis Champoux)
TTITLE1=Des Pas Sur La Neige(Denis Champoux-Denis Champoux)
TTITLE2=Au Joli Mois De Mai(Rita Godin-Rita Godin)
TTITLE3=Faut Pas Cueillir Les Roses(Denis Champoux-Denis Champoux)
TTITLE4=Un Oiseau Chante(Georges Hamel-Georges Hamel)
TTITLE5=Te Revoir Petite(Georges Hamel-Georges Hamel)
TTITLE6=C'est Trop Facile De T'aimer(Denis Champoux-Denis Champoux)
TTITLE7=Tu Es L'amour De Ma Vie(Denis Champoux-Denis Champoux)
TTITLE8=Tout S'arrange(Georges Hamel-Georges Hamel)
TTITLE9=L'amour Est à Ma Porte(Denis Champoux-Denis Champoux)
EXTD=
EXTT0=
EXTT1=
EXTT2=
EXTT3=
EXTT4=
EXTT5=
EXTT6=
EXTT7=
EXTT8=
EXTT9=
PLAYORDER=
